<svg width="31" height="30" viewBox="0 0 31 30" fill="none" xmlns="http://www.w3.org/2000/svg">
<rect x="0.919983" width="30" height="30" rx="2" fill="#F395C1"/>
<path d="M21.652 11.9062C21.652 12.043 21.652 12.1523 21.652 12.2891C21.652 16.0898 18.7809 20.4375 13.5036 20.4375C11.863 20.4375 10.359 19.9727 9.10123 19.1523C9.31998 19.1797 9.53873 19.207 9.78483 19.207C11.1247 19.207 12.3551 18.7422 13.3395 17.9766C12.0817 17.9492 11.0153 17.1289 10.6598 15.9805C10.8512 16.0078 11.0153 16.0352 11.2067 16.0352C11.4528 16.0352 11.7262 15.9805 11.945 15.9258C10.6325 15.6523 9.64811 14.5039 9.64811 13.1094V13.082C10.0309 13.3008 10.4958 13.4102 10.9606 13.4375C10.1676 12.918 9.67545 12.043 9.67545 11.0586C9.67545 10.5117 9.81217 10.0195 10.0583 9.60938C11.4801 11.332 13.613 12.4805 15.9919 12.6172C15.9372 12.3984 15.9098 12.1797 15.9098 11.9609C15.9098 10.375 17.195 9.08984 18.7809 9.08984C19.6012 9.08984 20.3395 9.41797 20.8864 9.99219C21.5153 9.85547 22.1442 9.60938 22.6911 9.28125C22.4723 9.96484 22.0348 10.5117 21.4333 10.8672C22.0075 10.8125 22.5817 10.6484 23.0739 10.4297C22.6911 11.0039 22.1989 11.4961 21.652 11.9062Z" fill="white"/>
</svg>
