<svg width="31" height="30" viewBox="0 0 31 30" fill="none" xmlns="http://www.w3.org/2000/svg">
<rect x="0.919983" width="30" height="30" rx="2" fill="#F395C1"/>
<path d="M23.2439 11.168C23.572 12.3164 23.572 14.7773 23.572 14.7773C23.572 14.7773 23.572 17.2109 23.2439 18.3867C23.0798 19.043 22.5603 19.5352 21.9314 19.6992C20.7556 20 16.1072 20 16.1072 20C16.1072 20 11.4314 20 10.2556 19.6992C9.6267 19.5352 9.10717 19.043 8.9431 18.3867C8.61498 17.2109 8.61498 14.7773 8.61498 14.7773C8.61498 14.7773 8.61498 12.3164 8.9431 11.168C9.10717 10.5117 9.6267 9.99219 10.2556 9.82812C11.4314 9.5 16.1072 9.5 16.1072 9.5C16.1072 9.5 20.7556 9.5 21.9314 9.82812C22.5603 9.99219 23.0798 10.5117 23.2439 11.168ZM14.5759 16.9922L18.4587 14.7773L14.5759 12.5625V16.9922Z" fill="white"/>
</svg>
