<svg width="21" height="17" viewBox="0 0 21 17" fill="none" xmlns="http://www.w3.org/2000/svg">
<path d="M18.8497 4.57764C18.8497 4.77295 18.8497 4.9292 18.8497 5.12451C18.8497 10.5542 14.7481 16.7651 7.20908 16.7651C4.86533 16.7651 2.71689 16.1011 0.920013 14.9292C1.23251 14.9683 1.54501 15.0073 1.89658 15.0073C3.81064 15.0073 5.56845 14.3433 6.9747 13.2495C5.17783 13.2104 3.65439 12.0386 3.14658 10.3979C3.42001 10.437 3.65439 10.4761 3.92783 10.4761C4.27939 10.4761 4.67001 10.3979 4.98251 10.3198C3.10751 9.9292 1.70126 8.28857 1.70126 6.29639V6.25732C2.24814 6.56982 2.9122 6.72607 3.57626 6.76514C2.44345 6.02295 1.74033 4.77295 1.74033 3.3667C1.74033 2.58545 1.93564 1.88232 2.2872 1.29639C4.31845 3.75732 7.36533 5.39795 10.7638 5.59326C10.6856 5.28076 10.6466 4.96826 10.6466 4.65576C10.6466 2.39014 12.4825 0.554199 14.7481 0.554199C15.92 0.554199 16.9747 1.02295 17.756 1.84326C18.6544 1.64795 19.5528 1.29639 20.3341 0.827637C20.0216 1.8042 19.3966 2.58545 18.5372 3.09326C19.3575 3.01514 20.1778 2.78076 20.881 2.46826C20.3341 3.28857 19.631 3.9917 18.8497 4.57764Z" fill="#55ACEE"/>
</svg>
